<svg xmlns="http://www.w3.org/2000/svg" viewBox="0 0 38 24" role="img" aria-label="Apple Pay">
  <rect width="38" height="24" rx="2" fill="#fff" stroke="#E5E5E5"/>
  <path fill="#000" d="M11.2 8.3c.6-.7 1.6-1.2 2.4-1.2.1.9-.3 1.7-.8 2.3-.6.7-1.5 1.2-2.3 1.1-.1-.8.3-1.6.7-2.2zm.7 1.1c1.3-.1 2.4.8 3 .8.6 0 1.9-.7 3.1-.6 1.3.1 2.2.6 2.8 1.5-2.5 1.4-2.1 4.2-4 5.3-.5.3-1.2.6-1.9.6-.7 0-1-.4-1.9-.4s-1.2.4-1.9.4c-.7 0-1.4-.3-1.9-.7-1.6-1.4-2.8-4-1.2-5.7.8-.8 2-.9 2.7-.9z"/>
  <text x="22" y="15" font-family="system-ui,sans-serif" font-size="6" font-weight="600" fill="#000">Pay</text>
</svg>
