<svg xmlns="http://www.w3.org/2000/svg" viewBox="0 0 38 24" role="img" aria-label="Google Pay">
  <rect width="38" height="24" rx="2" fill="#fff" stroke="#E5E5E5"/>
  <path fill="#4285F4" d="M10 12.2c0-1.5.5-2.9 1.3-4l2.2 1.7a4.5 4.5 0 0 0-.2 2.3c0 .8.2 1.5.5 2.2l-2.2 1.7a6.8 6.8 0 0 1-1.8-3.9z"/>
  <path fill="#34A853" d="M18.8 16.8a4.5 4.5 0 0 0 2.7-.9l2.2 1.7c-1.2 1.1-2.8 1.8-4.9 1.8-2.2 0-4.1-.9-5.4-2.3l2.2-1.7c.8.8 2 1.4 3.2 1.4z"/>
  <path fill="#FBBC05" d="M10 12.2a6.8 6.8 0 0 1 1.8-3.9l2.2 1.7A4.5 4.5 0 0 0 12 12.2c0 .8.2 1.5.5 2.2l-2.2 1.7A6.8 6.8 0 0 1 10 12.2z"/>
  <path fill="#EA4335" d="M18.8 7.6c1.2 0 2.3.4 3.1 1.2l2.3-2.3C23.2 5.2 21.1 4.4 18.8 4.4c-2.2 0-4.1.9-5.4 2.3l2.2 1.7c.8-.9 2-1.4 3.2-1.4z"/>
  <text x="22" y="15" font-family="system-ui,sans-serif" font-size="5.5" font-weight="600" fill="#5F6368">Pay</text>
</svg>
