<svg xmlns="http://www.w3.org/2000/svg" viewBox="0 0 38 24" role="img" aria-label="Visa">
  <rect width="38" height="24" rx="2" fill="#fff"/>
  <path fill="#1434CB" d="M16.2 15.5h-2.4l1.5-9.2h2.4l-1.5 9.2zm9.8-8.9c-.5-.2-1.2-.4-2.1-.4-2.3 0-3.9 1.2-3.9 3 0 1.3 1.2 2 2.1 2.4.9.5 1.2.8 1.2 1.2 0 .7-.7 1-1.4 1-.9 0-1.8-.2-2.5-.6l-.3-.2-.4 2.2c.6.3 1.7.5 2.8.5 2.4 0 4-1.2 4-3.1 0-1-.7-1.8-2.2-2.4-.9-.4-1.4-.7-1.4-1.1 0-.4.4-.8 1.3-.8.7 0 1.3.2 1.7.3l.2.1.4-2.1zm6.2 5.6c.5-1.3 2.5-6.2 2.5-6.2h-2.3l-1.4 3.5-.2-.7-1.4-2.8h-2.5l3.8 5.6-1.4 3.6h2.3l5.6-13.2h-2.3l-1.7 9.2zm-12.4-9.2-2.3 9.2H8.6L6.3 6.3c-.5-1.9-2-3.2-3.8-3.7L0 2.1h7.1c1.8 0 3.4 1.1 4 2.8l2.5 10.6z"/>
</svg>
